<?xml version="1.0" encoding="iso-8859-1"?>
<!-- Generator: Adobe Illustrator 16.0.0, SVG Export Plug-In . SVG Version: 6.00 Build 0)  -->
<!DOCTYPE svg PUBLIC "-//W3C//DTD SVG 1.1//EN" "http://www.w3.org/Graphics/SVG/1.1/DTD/svg11.dtd">
<svg version="1.1" id="Capa_1" xmlns="http://www.w3.org/2000/svg" xmlns:xlink="http://www.w3.org/1999/xlink" x="0px" y="0px"
	 width="909.156px" height="909.156px" viewBox="0 0 909.156 909.156" style="enable-background:new 0 0 909.156 909.156;"
	 xml:space="preserve">
<g>
	<path d="M427.591,226.631c-7.746,27.941,8.626,56.871,36.566,64.617l180.545,50.05c4.692,1.301,9.41,1.921,14.055,1.921
		c23.004,0,44.118-15.24,50.562-38.488l49.378-178.118c7.746-27.941-8.626-56.871-36.565-64.617
		c-27.942-7.748-56.872,8.626-64.617,36.567l-15.718,56.698l-50.266-87.062c-23.95-41.484-66.848-66.25-114.749-66.25
		c-47.9,0-90.798,24.766-114.747,66.25L247.916,265.857c-14.497,25.11-5.894,57.219,19.217,71.716
		c8.269,4.774,17.294,7.042,26.201,7.042c18.144,0,35.792-9.417,45.516-26.259l114.117-197.658
		c7.164-12.41,19.042-13.75,23.815-13.75c4.772,0,16.649,1.34,23.814,13.75l49.278,85.351l-57.667-15.986
		C464.264,182.317,435.336,198.69,427.591,226.631z"/>
	<path d="M890.992,576.26L777.978,381.865c-14.572-25.065-46.706-33.573-71.773-19.001c-25.066,14.573-33.573,46.707-19.001,71.773
		l113.014,194.395c7.209,12.4,2.451,23.376,0.07,27.521c-2.38,4.144-9.467,13.783-23.811,13.801l-102.099,0.128l42.115-41.613
		c20.626-20.379,20.824-53.62,0.444-74.245c-20.378-20.625-53.618-20.823-74.244-0.444L511.214,684.091
		c-20.625,20.379-20.825,53.619-0.445,74.244l131.683,133.272c10.271,10.395,23.804,15.6,37.347,15.6
		c13.329,0,26.667-5.046,36.896-15.154c20.625-20.379,20.825-53.62,0.445-74.245l-41.822-42.327l101.289-0.127
		c47.95-0.061,90.837-24.918,114.725-66.495C915.217,667.281,915.09,617.711,890.992,576.26z"/>
	<path d="M218.457,358.077L39.442,404.095c-28.082,7.219-44.995,35.836-37.776,63.917c6.092,23.699,27.42,39.443,50.81,39.441
		c4.325,0,8.725-0.539,13.107-1.666l56.983-14.646l-50.402,86.982c-24.015,41.446-24.092,90.979-0.206,132.5
		c23.886,41.521,66.743,66.354,114.645,66.43l228.235,0.356c0.028,0,0.056,0,0.084,0c28.956,0,52.453-23.451,52.498-52.418
		c0.045-28.995-23.423-52.537-52.418-52.582l-228.235-0.356c-14.33-0.022-21.414-9.649-23.794-13.787
		c-2.381-4.139-7.142-15.102,0.042-27.5l49.412-85.275l14.898,57.959c6.092,23.699,27.42,39.442,50.81,39.442
		c4.325,0,8.725-0.539,13.107-1.666c28.081-7.218,44.994-35.835,37.775-63.917l-46.644-181.455
		c-3.467-13.485-12.147-25.042-24.135-32.126C246.252,356.643,231.942,354.609,218.457,358.077z"/>
</g>
<g>
</g>
<g>
</g>
<g>
</g>
<g>
</g>
<g>
</g>
<g>
</g>
<g>
</g>
<g>
</g>
<g>
</g>
<g>
</g>
<g>
</g>
<g>
</g>
<g>
</g>
<g>
</g>
<g>
</g>
</svg>
