<?xml version="1.0" encoding="utf-8"?>
<!-- Generator: Adobe Illustrator 25.2.3, SVG Export Plug-In . SVG Version: 6.00 Build 0)  -->
<svg version="1.1" id="Layer_1" xmlns="http://www.w3.org/2000/svg" xmlns:xlink="http://www.w3.org/1999/xlink" x="0px" y="0px"
	 viewBox="0 0 2010.3 504.1" style="enable-background:new 0 0 2010.3 504.1;" xml:space="preserve">
<style type="text/css">
	.st0{enable-background:new    ;}
	.st1{fill:#231F20;}
	.st2{fill:#010101;}
</style>
<g class="st0">
	<path class="st1" d="M544.6,212.4v14.5h100.6v27.9H544.6v29.5c0,7.9,6.4,14.4,14.3,14.4H673v27.9H558.9c-23.3,0-42.2-19-42.2-42.3
		v-71.9c0-23.3,18.9-42.3,42.2-42.3H673V198H558.9C551,198,544.6,204.5,544.6,212.4z"/>
	<path class="st1" d="M846.2,326.6h-31.3l-14.3-28l-34.1-67l-34.1,67l-14.3,28h-31.3l14.2-28l65.5-128.5L832,298.6L846.2,326.6z"/>
</g>
<g class="st0">
	<path class="st1" d="M986.2,298.6l14.2,28h-31.3l-14.3-28l-14.9-29.3l-0.7-1.2c-4.8-8-13.7-13.4-23.8-13.4h-27.9v71.9h-27.9V170.1
		h98.7c11.7,0,22.2,4.7,29.8,12.4c7.6,7.7,12.4,18.3,12.4,29.9c0,17.1-10.1,31.9-24.7,38.5c-3.8,1.8-7.9,3-12.2,3.4c0,0,0,0,0,0
		L986.2,298.6z M958.4,226.8c2,0,4-0.4,5.9-1.3c5.2-2.3,8.5-7.4,8.5-13.1c0-5.1-2.7-8.6-4.3-10.3c-1.9-1.8-5.1-4.1-10-4.1h-70.8
		v28.8H958.4z"/>
</g>
<g class="st0">
	<path class="st1" d="M1171.8,170.2v27.9h-64.2v128.5h-27.9V198.1h-64.2v-27.9H1171.8z"/>
	<path class="st1" d="M1350.6,170.2v156.4h-27.9v-71.8h-100.6v71.7h-27.9V170.1h27.9v56.8h100.6v-56.7H1350.6z"/>
</g>
<g class="st0">
	<path class="st1" d="M1502.1,298.6v27.9h-79.2c-7.9,0-15.3-1.9-21.9-5.1c-9.9-4.8-17.9-12.8-22.7-22.8c-3.3-6.6-5.2-14-5.2-21.9
		V170.1h27.9v109.3c1.3,9.9,9.2,17.8,19.1,19.1H1502.1z"/>
</g>
<g class="st0">
	<path class="st1" d="M1658.1,248.3c0,43.2-35,78.2-78.2,78.2c-43.2,0-78.2-35-78.2-78.2c0-43.2,35-78.2,78.2-78.2
		S1658.1,205.2,1658.1,248.3z M1630.3,248.3c0-27.7-22.6-50.3-50.3-50.3c-27.7,0-50.3,22.6-50.3,50.3c0,27.7,22.6,50.3,50.3,50.3
		C1607.7,298.7,1630.3,276.1,1630.3,248.3z"/>
	<path class="st1" d="M1831.6,170.1v156.4l-28-21.6l-100.5-77.5v99h-28V170.7l28,21.6l100.5,77.5v-99.6H1831.6z"/>
	<path class="st1" d="M1881.8,212.4v14.5h100.6v27.9h-100.6v29.5c0,7.9,6.4,14.4,14.3,14.4h114.2v27.9h-114.2
		c-23.3,0-42.2-19-42.2-42.3v-71.9c0-23.3,18.9-42.3,42.2-42.3h114.2V198h-114.2C1888.2,198,1881.8,204.5,1881.8,212.4z"/>
</g>
<path class="st2" d="M283.5,47.3L220.5,0v31.5C98.9,31.5,0,130.4,0,252c0,72.5,35.3,136.8,89.5,177l26.3-19.7
	c-52.7-35-84.3-94-84.3-157.3c0-104.2,84.8-189,189-189v31.5L283.5,47.3L283.5,47.3z"/>
<path class="st2" d="M220.5,441v-31.5l-63,47.2l63,47.3v-31.5C342.1,472.5,441,373.6,441,252c0-72.5-35.3-136.8-89.5-177l-26.3,19.7
	c52.7,35,84.3,94,84.3,157.2C409.5,356.2,324.8,441,220.5,441L220.5,441z"/>
<path class="st2" d="M283.5,47.3L220.5,0v31.5C98.9,31.5,0,130.4,0,252c0,72.5,35.3,136.8,89.5,177l26.3-19.7
	c-52.7-35-84.3-94-84.3-157.3c0-104.2,84.8-189,189-189v31.5L283.5,47.3L283.5,47.3z"/>
<path class="st2" d="M220.5,441v-31.5l-63,47.2l63,47.3v-31.5C342.1,472.5,441,373.6,441,252c0-72.5-35.3-136.8-89.5-177l-26.3,19.7
	c52.7,35,84.3,94,84.3,157.2C409.5,356.2,324.8,441,220.5,441L220.5,441z"/>
<path class="st1" d="M320.1,277.5c10-55-26.4-107.7-81.3-117.7c-4.7-0.9-9.5-1.4-14.3-1.6V140h5.6c14.8,0,26.8-12,26.9-26.9v-7.4
	c0-3.4-2.7-6.1-6.1-6.1l0,0h-7.4c-12.3,0-23,8.3-26,20.2c-5.1-5.5-12.2-8.7-19.8-8.7h-7.4c-3.4,0-6.1,2.7-6.1,6.1v7.4
	c0,14.8,12,26.9,26.8,26.9h5.6v6.6c-61.9,2.3-106.6,58.6-95.6,119.3c-7.7,0.2-13.9,6.6-13.7,14.3c0.1,6.6,4.9,12.2,11.4,13.5
	l7.6,1.6c-6.3,4.9-7.3,14.5-1.5,20.2c1.4,1.4,3.2,2.5,5.1,3.2c-3.4,6.4-0.9,14.4,5.5,17.8c1.9,1,3.9,1.5,6.1,1.5
	c0.1,7.3,6,13.1,13.3,13.1c2.1,0,4.2-0.5,6-1.5c1.9,5.3,6.9,8.9,12.5,9c3.5,0,6.9-1.4,9.3-3.9l9.8-9.8c18.4,5.3,37.9,5.3,56.3,0
	l9.8,9.8c5.2,5.2,13.5,5.2,18.7,0c1.4-1.4,2.5-3.2,3.2-5.1c6.4,3.4,14.4,0.9,17.8-5.5c1-1.9,1.5-3.9,1.5-6c3.5,0,6.8-1.4,9.2-3.9
	c4-4.1,5-10.4,2.4-15.5c1.9-0.7,3.7-1.7,5.1-3.2c5.7-5.7,4.7-15.4-1.5-20.2l7.6-1.6c7.6-1.4,12.6-8.8,11.1-16.4
	C332.3,282.4,326.7,277.6,320.1,277.5L320.1,277.5z M224.5,126.5c0-10.4,8.5-18.9,18.9-18.9h5.6v5.6c0,10.1-7.9,18.4-18,18.9
	l5.8-5.1c1.4-1.7,1.2-4.2-0.5-5.6c-1.4-1.2-3.3-1.3-4.8-0.3l-7,6.2L224.5,126.5z M209.7,131.1c-1.3-1.8-3.8-2.1-5.6-0.8
	s-2.1,3.8-0.8,5.6c0.2,0.3,0.5,0.6,0.8,0.8l6.9,6.9c-10.4-0.1-18.9-8.5-18.9-18.9v-5.6h5.6c10.4,0,18.9,8.5,18.9,18.9L209.7,131.1z
	 M120.3,297.5c-3.3-0.7-5.5-3.9-4.8-7.2c0.7-3.3,3.9-5.5,7.2-4.8c1.2,4.6,2.8,9.1,4.7,13.5L120.3,297.5z M130.3,321.5
	c-2-2.1-2-5.4,0-7.5l15.7-15.7c2.1-2,5.4-2,7.5,0c2.1,2.1,2.1,5.4,0,7.5l-15.7,15.7C135.7,323.5,132.4,323.5,130.3,321.5
	L130.3,321.5z M137.8,340.1c-2.1-2.1-2.1-5.4,0-7.5l26.9-26.9c2.1-2,5.4-2,7.5,0l0,0c2,2.1,2,5.4,0,7.5l-26.9,26.9
	C143.2,342.2,139.9,342.2,137.8,340.1L137.8,340.1z M158.3,353.2c-2.1,2.1-5.4,2.1-7.5,0s-2.1-5.4,0-7.5l0,0l26.9-26.9
	c2.1-2.1,5.4-2.1,7.5,0s2.1,5.4,0,7.5L158.3,353.2z M192.7,345L177,360.7c-2.1,2.1-5.4,2.1-7.5,0s-2.1-5.4,0-7.5l15.7-15.7
	c2.1-2.1,5.4-2.1,7.5,0C194.8,339.6,194.8,342.9,192.7,345z M198.3,331.9c-1.4-1.4-3.2-2.5-5.1-3.2c3.4-6.4,0.9-14.4-5.5-17.8
	c-1.9-1-3.9-1.5-6-1.5c-0.1-7.3-6-13.2-13.3-13.1c-2.1,0-4.2,0.5-6,1.5c-0.6-1.9-1.7-3.7-3.2-5.1l0,0c-5.2-5.2-13.5-5.2-18.7,0
	l-4.9,4.9c-5.4-12.1-8.2-25.1-8.2-38.3c0-18.5,5.5-36.6,15.9-52c8.3,5.7,14.4,13.4,16.8,20.9c1.5,4.8,1.2,8.7,0.8,14
	c-0.9,9.3-0.5,18.7,1.4,27.8c0.8,4.4,2,8.8,3.5,13.1c0.5,2.2,2.6,3.5,4.7,3.1c2.2-0.5,3.5-2.6,3.1-4.7c-0.1-0.4-0.2-0.7-0.4-1
	c-1.4-3.9-2.4-7.8-3.2-11.9c-1.7-8.4-2.1-17.1-1.2-25.6c0.5-5.8,0.9-10.8-1.1-17c-2.9-9.3-9.9-18.2-19.6-24.9
	c12.6-15.7,29.8-26.9,49.3-32c2.3,9.6,4.1,19.9,5.7,30c2.5,16.3,4.5,29.1,14.3,32.2c5.6,1.8,10.4-0.9,14.6-3.3
	c3.9-2.2,7.6-4.3,12.2-3.4c6.9,1.3,11.4,12.3,17.7,17.5c9.2,7.6,22.7,10.6,36.3,9.5c2.2,0.1,4.1-1.5,4.2-3.8
	c0.1-2.2-1.5-4.1-3.8-4.2c-0.4,0-0.8,0-1.1,0.1c-12.1,1-23.5-1.9-30.6-7.7c-7.9-6.5-9.6-16.9-21.2-19.1c-7.4-1.4-13,1.8-17.6,4.3
	c-3.7,2.1-6.1,3.4-8.3,2.6c-5.1-1.6-6.9-13.4-8.9-25.9c-1.6-10.2-3.5-20.7-5.8-30.4c50.8-8.6,99,25.6,107.6,76.4
	c3.1,18.3,0.7,37-6.9,53.9l-4.9-4.9c-5.2-5.2-13.5-5.2-18.7,0l0,0c-1.4,1.4-2.5,3.2-3.2,5.1c-2-1.1-4.3-1.6-6.6-1.5
	c-8.9-8.1-27.1-23.8-40.2-17.6c-6.8,3.3-7.9,10.1-9.1,17.9c-0.9,5.7-1.9,12.1-5,19.3c-3.7,8.2-9.3,15.5-16.4,21.1
	C200.9,335.1,199.8,333.4,198.3,331.9L198.3,331.9z M242.7,331.9c-4.9,5-5.2,12.9-0.5,18.1c-14.3,3.4-29.1,3.4-43.4,0
	c0.7-0.7,1.2-1.6,1.7-2.4c11.6-7.8,19.6-17.1,24.6-28.4c3.6-8.2,4.7-15.4,5.6-21.3c1.1-7.1,1.8-10.6,4.7-12
	c7.3-3.5,20.7,6.9,28.5,13.7c-2.8,2.5-4.5,6-4.5,9.8c-7.3,0.1-13.1,6-13.1,13.3c0,2.1,0.5,4.2,1.5,6.1
	C245.9,329.4,244.2,330.5,242.7,331.9L242.7,331.9z M271.5,360.7c-2.1,2.1-5.4,2.1-7.5,0L248.4,345c-2.1-2.1-2.1-5.4,0-7.5l0,0
	c2.1-2,5.4-2,7.5,0l15.7,15.7C273.5,355.3,273.5,358.6,271.5,360.7L271.5,360.7z M290.2,353.2c-2.1,2.1-5.4,2.1-7.5,0l-26.9-26.9
	c-2.1-2.1-2.1-5.4,0-7.5c2.1-2.1,5.4-2.1,7.5,0l26.9,26.9c2.1,2,2.3,5.3,0.3,7.4C290.4,353.2,290.3,353.3,290.2,353.2L290.2,353.2z
	 M303.3,340.1c-2.1,2-5.4,2-7.5,0l-26.9-26.9c-2-2.1-2-5.4,0-7.5l0,0c2.1-2,5.4-2,7.5,0c8.5,8.5,18.8,18.8,26.9,26.9
	C305.3,334.7,305.3,338.1,303.3,340.1L303.3,340.1z M310.7,321.5c-2.1,2.1-5.4,2.1-7.5,0l-15.7-15.7c-2.1-2.1-2.1-5.4,0-7.5l0,0
	c2.1-2,5.4-2,7.5,0c3.1,3.1,12.4,12.5,15.7,15.7C312.8,316.1,312.8,319.4,310.7,321.5L310.7,321.5z M320.7,297.5l-7.1,1.5
	c1.9-4.4,3.4-8.9,4.6-13.5c3.3-0.7,6.5,1.5,7.2,4.8S324,296.8,320.7,297.5L320.7,297.5z"/>
</svg>
