<svg id="Layer_1" data-name="Layer 1" xmlns="http://www.w3.org/2000/svg" viewBox="0 0 2010.31 504.06"><defs><style>.cls-1{font-size:223.48px;font-family:AzonixRegular, Azonix;}.cls-1,.cls-5{fill:#231f20;}.cls-2{letter-spacing:-0.03em;}.cls-3{letter-spacing:-0.08em;}.cls-4{fill:#010101;}</style></defs><text class="cls-1" transform="translate(505.51 326.56)">EA<tspan class="cls-2" x="343.03" y="0">R</tspan><tspan x="498.8" y="0">TH</tspan><tspan class="cls-3" x="856.36" y="0">L</tspan><tspan x="990.44" y="0">oNE</tspan></text><path class="cls-4" d="M283.53,47.26,220.52,0V31.5C98.93,31.5,0,130.43,0,252c0,72.52,35.34,136.78,89.54,177l26.31-19.73A188.94,188.94,0,0,1,31.5,252c0-104.23,84.79-189,189-189v31.5l63-47.25Z"/><path class="cls-4" d="M220.52,441.05v-31.5l-63,47.25,63,47.26V472.55c121.6,0,220.53-98.92,220.53-220.52,0-72.52-35.34-136.78-89.54-177L325.2,94.76A188.94,188.94,0,0,1,409.55,252c0,104.23-84.79,189-189,189Z"/><path class="cls-4" d="M283.53,47.26,220.52,0V31.5C98.93,31.5,0,130.43,0,252c0,72.52,35.34,136.78,89.54,177l26.31-19.73A188.94,188.94,0,0,1,31.5,252c0-104.23,84.79-189,189-189v31.5l63-47.25Z"/><path class="cls-4" d="M220.52,441.05v-31.5l-63,47.25,63,47.26V472.55c121.6,0,220.53-98.92,220.53-220.52,0-72.52-35.34-136.78-89.54-177L325.2,94.76A188.94,188.94,0,0,1,409.55,252c0,104.23-84.79,189-189,189Z"/><path class="cls-5" d="M320.09,277.47a101.16,101.16,0,0,0-95.6-119.28V140h5.57a26.89,26.89,0,0,0,26.86-26.86v-7.41a6.08,6.08,0,0,0-6.08-6.08h-7.42a26.9,26.9,0,0,0-26,20.23,26.79,26.79,0,0,0-19.76-8.7h-7.42a6.09,6.09,0,0,0-6.08,6.08v7.42A26.89,26.89,0,0,0,211,151.56h5.57v6.63c-61.89,2.28-106.64,58.65-95.6,119.28a14,14,0,0,0-2.32,27.75l7.6,1.65c-6.32,4.92-7.28,14.46-1.53,20.21a13.12,13.12,0,0,0,5.13,3.17,13.2,13.2,0,0,0,11.56,19.37,13.2,13.2,0,0,0,19.36,11.56,13.48,13.48,0,0,0,12.52,9,13.17,13.17,0,0,0,9.34-3.87l9.75-9.75a101.82,101.82,0,0,0,56.31,0l9.75,9.75a13.22,13.22,0,0,0,18.68,0,13,13,0,0,0,3.18-5.12,13.2,13.2,0,0,0,19.36-11.56,13.15,13.15,0,0,0,9.22-3.86,13.41,13.41,0,0,0,2.35-15.5,13.28,13.28,0,0,0,5.12-3.18c5.69-5.7,4.68-15.4-1.53-20.21l7.6-1.65a14,14,0,0,0-2.32-27.75Zm-95.6-150.94a19,19,0,0,1,18.93-18.94H249v5.57a19,19,0,0,1-18,18.92l5.75-5.09a4,4,0,0,0-5.25-5.93l-7,6.2Zm-14.81,4.62a4,4,0,1,0-5.6,5.6l6.88,6.88a19,19,0,0,1-18.9-18.93v-5.57h5.57A19,19,0,0,1,216.56,138ZM120.32,297.47a6.11,6.11,0,0,1,2.45-12A100.2,100.2,0,0,0,127.42,299Zm10,24a5.33,5.33,0,0,1,0-7.47L146,298.31a5.34,5.34,0,0,1,7.47,0,5.29,5.29,0,0,1,0,7.47l-15.69,15.69a5.34,5.34,0,0,1-7.48,0Zm7.48,18.68a5.29,5.29,0,0,1,0-7.47l26.89-26.9a5.34,5.34,0,0,1,7.48,0h0a5.33,5.33,0,0,1,0,7.47l-26.9,26.9A5.32,5.32,0,0,1,137.79,340.15Zm20.54,13.08a5.28,5.28,0,0,1-7.47-7.47l26.9-26.9a5.28,5.28,0,0,1,7.47,7.47ZM192.7,345,177,360.7a5.28,5.28,0,1,1-7.47-7.47l15.69-15.69A5.28,5.28,0,1,1,192.7,345Zm5.61-13.08a13.25,13.25,0,0,0-5.13-3.18,13.19,13.19,0,0,0-11.55-19.35,13.22,13.22,0,0,0-19.38-11.57,13,13,0,0,0-3.17-5.12h0a13.21,13.21,0,0,0-18.68,0l-4.94,4.94a93.68,93.68,0,0,1-8.22-38.34,92.71,92.71,0,0,1,15.87-52c8.27,5.73,14.43,13.35,16.76,20.88,1.49,4.8,1.18,8.68.76,14A92.72,92.72,0,0,0,162,270a83.26,83.26,0,0,0,3.5,13.08,4,4,0,1,0,7.46-2.68,75.13,75.13,0,0,1-3.18-11.89,84.86,84.86,0,0,1-1.2-25.62c.46-5.77.85-10.76-1.09-17-2.87-9.26-9.92-18.16-19.62-24.92A93.53,93.53,0,0,1,197.15,169c2.28,9.61,4.15,19.94,5.72,30,2.54,16.26,4.54,29.1,14.27,32.23,5.58,1.8,10.36-.9,14.58-3.29,3.94-2.22,7.65-4.32,12.16-3.45,6.88,1.34,11.38,12.29,17.67,17.46,9.24,7.6,22.74,10.61,36.27,9.49a4,4,0,1,0-.66-7.89c-12.06,1-23.49-1.89-30.58-7.72-7.87-6.47-9.57-16.86-21.19-19.12-7.37-1.43-13,1.77-17.57,4.33-3.7,2.1-6.08,3.35-8.26,2.65-5.07-1.64-6.91-13.42-8.86-25.91-1.59-10.21-3.5-20.71-5.8-30.45A93.31,93.31,0,0,1,305.58,297.65l-4.93-4.94a13.21,13.21,0,0,0-18.68,0h0a13.18,13.18,0,0,0-3.18,5.12,13.25,13.25,0,0,0-6.63-1.51c-8.91-8.08-27.14-23.8-40.16-17.56-6.84,3.27-7.89,10.07-9.1,17.94-.87,5.67-1.86,12.1-5,19.3a56,56,0,0,1-16.4,21.07,13.11,13.11,0,0,0-3.17-5.14Zm44.43,0a13.23,13.23,0,0,0-.52,18.13,94.28,94.28,0,0,1-43.39,0,14,14,0,0,0,1.72-2.44c11.58-7.84,19.63-17.15,24.59-28.43,3.58-8.16,4.7-15.44,5.6-21.29,1.09-7.11,1.75-10.59,4.69-12,7.28-3.49,20.66,6.89,28.49,13.7a13.15,13.15,0,0,0-4.5,9.8,13.18,13.18,0,0,0-11.55,19.35A13.25,13.25,0,0,0,242.74,331.93Zm28.77,28.77a5.29,5.29,0,0,1-7.47,0L248.35,345a5.29,5.29,0,0,1,0-7.47h0a5.31,5.31,0,0,1,7.47,0l15.69,15.69A5.34,5.34,0,0,1,271.51,360.7Zm18.68-7.47a5.29,5.29,0,0,1-7.47,0l-26.9-26.9a5.28,5.28,0,0,1,7.47-7.47l26.9,26.9A5.29,5.29,0,0,1,290.19,353.23Zm13.07-13.08a5.32,5.32,0,0,1-7.47,0l-26.9-26.9a5.32,5.32,0,0,1,0-7.47h0a5.34,5.34,0,0,1,7.48,0c8.45,8.54,18.81,18.82,26.89,26.9A5.29,5.29,0,0,1,303.26,340.15Zm7.47-18.68a5.29,5.29,0,0,1-7.47,0l-15.69-15.69a5.29,5.29,0,0,1,0-7.47h0a5.32,5.32,0,0,1,7.47,0c3.09,3.08,12.43,12.46,15.7,15.69A5.33,5.33,0,0,1,310.73,321.47Zm10-24-7.1,1.54a100.2,100.2,0,0,0,4.65-13.51,6.11,6.11,0,0,1,2.45,12Z"/></svg>