<?xml version="1.0" encoding="utf-8"?>
<!-- Generator: Adobe Illustrator 25.2.3, SVG Export Plug-In . SVG Version: 6.00 Build 0)  -->
<svg version="1.1" id="Layer_1" xmlns:xodm="http://www.corel.com/coreldraw/odm/2003"
	 xmlns="http://www.w3.org/2000/svg" xmlns:xlink="http://www.w3.org/1999/xlink" x="0px" y="0px" viewBox="0 0 2186.1 666.3"
	 style="enable-background:new 0 0 2186.1 666.3;" xml:space="preserve">
<style type="text/css">
	.st0{fill-rule:evenodd;clip-rule:evenodd;fill:#4D4C4B;}
	.st1{fill-rule:evenodd;clip-rule:evenodd;fill:#5FB74E;}
	.st2{fill-rule:evenodd;clip-rule:evenodd;fill:#89C45F;}
	.st3{fill-rule:evenodd;clip-rule:evenodd;fill:#4A9E4B;}
	.st4{fill-rule:evenodd;clip-rule:evenodd;fill:#FDF8B4;}
	.st5{fill-rule:evenodd;clip-rule:evenodd;fill:#FCD066;}
	.st6{fill-rule:evenodd;clip-rule:evenodd;fill:#EEEFEE;}
	.st7{fill-rule:evenodd;clip-rule:evenodd;fill:#FEFEFE;}
	.st8{fill-rule:evenodd;clip-rule:evenodd;fill:#3CAF41;}
</style>
<g>
	<path class="st0" d="M295.4,154c31.3-15.6,69.3-24.2,104.1-27.2l39.1-3.4c42.8-3.7,85.6-1.4,128.5-1.4h23.5v23.5
		c0,104.3,0,208.7,0,313v12c0,107.7-88.1,195.8-195.8,195.8H0V121.9h23.5c42.9,0,85.6-2.8,128.5,0.5l39.1,2.9
		C228.1,128.2,262.1,137.2,295.4,154L295.4,154z"/>
	<path class="st1" d="M23.5,145.4v268.2v44.9v12v172.3h172.3h27.1h171.9c94.8,0,172.3-77.6,172.3-172.3v-12c0-103.7,0-204.9,0-313
		c-41.2,0-84.7-1-126.4,1.3l-39.1,3.4c-38.2,4.6-76.9,13.6-106.3,30.5c-31.6-18.3-66.2-27.4-106-31.8l-39.1-3
		C107.6,143.9,63.9,145.4,23.5,145.4L23.5,145.4z"/>
	<path class="st2" d="M72.2,642.8h123.5h27.1h171.9c42,0,80.6-15.2,110.5-40.4c-35-81.3-115.9-138.2-210-138.2
		C186.2,464.2,95,540.6,72.2,642.8z"/>
	<path class="st3" d="M295.3,642.8l101.5-1.5c41.4,0,79.2-14.6,108.5-38.9c37.8-31.3,61.8-78.6,61.8-131.9v-12
		c0-103.7,0-204.9,0-313c-41.2,0-84.7-1-126.4,1.3l-39.1,3.4c-38.2,4.6-76.9,13.6-106.3,30.5L295.3,642.8L295.3,642.8z"/>
	<path class="st1" d="M295.3,642.8h100.1c42,0,80-15.2,109.9-40.4c-34.6-80.4-117.2-137-210-138.2L295.3,642.8L295.3,642.8z"/>
	<path class="st0" d="M440.6,130.5C433.2,57.2,371.2,0,295.9,0c-75.2,0-137.2,56.7-145.7,129.6l39.1,3
		c6.9-52.7,51.8-93.4,106.5-93.4c54.7,0,100,41.4,105.8,94.7L440.6,130.5L440.6,130.5z"/>
	<path class="st0" d="M358.8,487.1c-17,18-34,36-51.1,54.1l-12.5,13.3l-12.5-13.3c-17-18-34-36-51.1-54.1l-8.8-9.3l6.4-11.1
		c13.6-23.5,39.2-36.2,65.9-36.2c26.8,0,52.3,12.7,65.9,36.2l6.4,11.1L358.8,487.1z"/>
	<path class="st4" d="M346.3,475.3c-17,18-34,36-51,54.1c-17-18-34-36-51-54.1c10.7-18.5,30.9-27.7,51-27.6
		C315.4,447.6,335.6,456.8,346.3,475.3z"/>
	<path class="st5" d="M346.3,475.3c-17,18-34,36-51,54.1v-81.7C315.4,447.6,335.6,456.8,346.3,475.3z"/>
	<path class="st0" d="M167.7,213.2c76.2,0,138.1,61.9,138.1,138.1c0,76.2-61.8,138.1-138.1,138.1c-76.3,0-138.1-61.8-138.1-138.1
		C29.7,275.1,91.5,213.2,167.7,213.2L167.7,213.2z"/>
	<path class="st6" d="M167.7,236.7c63.3,0,114.6,51.3,114.6,114.6c0,63.3-51.3,114.6-114.6,114.6c-63.3,0-114.6-51.3-114.6-114.6
		C53.1,288,104.4,236.7,167.7,236.7z"/>
	<path class="st7" d="M167.7,236.7c52.2,0,96.3,35,110.1,82.7c-13.8,47.8-57.9,82.7-110.1,82.7c-52.2,0-96.3-35-110.1-82.7
		C71.4,271.7,115.5,236.7,167.7,236.7z"/>
	<path class="st0" d="M422.8,213.2c76.3,0,138.1,61.9,138.1,138.1c0,76.2-61.8,138.1-138.1,138.1c-76.3,0-138.1-61.8-138.1-138.1
		C284.7,275.1,346.6,213.2,422.8,213.2L422.8,213.2z"/>
	<path class="st6" d="M422.8,236.7c63.3,0,114.6,51.3,114.6,114.6c0,63.3-51.3,114.6-114.6,114.6c-63.3,0-114.6-51.3-114.6-114.6
		C308.2,288,359.5,236.7,422.8,236.7z"/>
	<path class="st7" d="M422.8,236.7c52.2,0,96.3,35,110.1,82.7c-13.8,47.8-57.9,82.7-110.1,82.7c-52.2,0-96.3-35-110.1-82.7
		C326.5,271.7,370.6,236.7,422.8,236.7L422.8,236.7z"/>
	<path class="st0" d="M182.1,280.1c40.9,0,74,33.1,74,74c0,40.9-33.2,74-74,74c-40.9,0-74-33.1-74-74c0-13.6,3.7-26.4,10.1-37.4
		c5.3,13.1,18.1,22.2,33,22.2c19.7,0,35.7-15.9,35.7-35.6c0-8.9-3.2-16.9-8.6-23.2C179.6,280.1,180.9,280.1,182.1,280.1L182.1,280.1
		z"/>
	<path class="st0" d="M408.4,280.1c40.9,0,74,33.1,74,74c0,40.9-33.1,74-74,74c-40.9,0-74-33.1-74-74c0-13.6,3.7-26.4,10.1-37.4
		c5.3,13.1,18.1,22.2,33.1,22.2c19.7,0,35.6-15.9,35.6-35.6c0-8.9-3.2-16.9-8.5-23.2C405.9,280.1,407.2,280.1,408.4,280.1
		L408.4,280.1z"/>
</g>
<path class="st8" d="M1478.3,449.6c-16.5,16.8-36.3,25.2-59.2,25.2c-18.5,0-34.3-3.8-50.4-13.1v-38.4c12.9,8.8,29.2,17.1,45.2,17.1
	c33.4,0,53.3-23,53.3-55.6c0-32.6-20.6-56.3-54-56.3c-14.9,0-27,5.4-36.5,16.1c-10.1,11.7-15.4,28.3-15.4,50.4v151.8h-2.5
	c-18.4,0-33.4-14.9-33.4-33.3V389.2c0-52.7,32.2-95.2,87.6-95.2c27.3,0,49.5,9.3,66.4,28.1c15.8,17.5,23.7,39.8,23.7,66.5
	C1503.2,412.5,1494.9,432.8,1478.3,449.6L1478.3,449.6z M717.7,471.2c-35.1,0-52.5-23.9-52.5-57.2V287.6c0-18.4,14.9-33.3,33.4-33.3
	h2.5v43.2h60.6V332h-60.6v86.1c0,14.6,6.5,18.8,20.5,18.8h40.1v34.4L717.7,471.2L717.7,471.2z M926,449.3
	c-17.7,17-39,25.5-63.8,25.5c-24.5,0-45.7-8.5-63.4-25.5c-17.8-17-26.6-38.7-26.6-64.9c0-51,39-90.4,90.1-90.4
	c24.5,0,45.8,8.6,63.6,25.7c17.9,17.2,26.8,38.8,26.8,64.7C952.7,410.5,943.8,432.2,926,449.3L926,449.3z M1093.7,339.3
	c-5.3,8.8-9.3,15.2-12.2,19c-3.2,4.1-6.3,7.5-9.4,9.8c24.9,8.1,34.2,25.3,34.2,51.1l0,52.1h-2.5c-18.4,0-33.4-14.9-33.4-33.3v-15.2
	c0-16.6-7.5-28-25.1-28h-32.6v76.6h-2.5c-18.4,0-33.4-14.9-33.4-33.3v-185c0-18.4,14.9-33.4,33.4-33.4h2.5v140.3h10.6
	c11.6,0,19.3-4,23.7-11.5l30.1-50.9l40.9,0L1093.7,339.3z M1278.9,449.3c-17.7,17-39,25.5-63.8,25.5c-24.5,0-45.7-8.5-63.4-25.5
	c-17.8-17-26.6-38.7-26.6-64.9c0-51,39-90.4,90-90.4c24.5,0,45.8,8.6,63.6,25.7c17.9,17.2,26.8,38.8,26.8,64.7
	C1305.5,410.5,1296.7,432.2,1278.9,449.3L1278.9,449.3z M1253,344c-9.9-10.3-22.5-15.5-37.9-15.5c-33,0-52.8,24.1-52.8,56
	c0,31.5,20.2,56,52.8,56c32.6,0,52.8-24.5,52.8-56C1267.9,367.7,1262.9,354.3,1253,344L1253,344z M900.1,344
	c-9.9-10.3-22.4-15.5-37.9-15.5c-33,0-52.8,24.1-52.8,56c0,31.5,20.2,56,52.8,56c32.5,0,52.8-24.5,52.8-56
	C915,367.7,910,354.3,900.1,344L900.1,344z M1866.7,448.3c-16.5,17.7-37.6,26.5-63.4,26.5c-27.1,0-49.2-9.4-66-28.1
	c-15.8-17.8-23.7-40-23.7-66.5c0-46.9,36.2-86.2,83.9-86.2c18.4,0,34.4,3.9,50.5,12.7v38.8c-12.9-8.8-29.2-17.1-45.2-17.1
	c-33.4,0-53.3,23-53.3,55.6c0,32.2,21.1,56.3,54,56.3c14.9,0,27.2-5.6,37-16.8c9.8-11.2,14.8-27.6,14.8-49.7V252.9
	c0-18.4,14.9-33.4,33.4-33.4h2.5v159.9C1891.3,407.6,1883.1,430.6,1866.7,448.3L1866.7,448.3z M1968,276.9
	c-3.8,4.2-9.2,6.2-15.8,6.2c-12.3,0-21.1-9.1-21.1-21.3c0-12.5,8.6-20.9,21.1-20.9c12,0,21.1,8.9,21.1,20.9
	C1973.4,267.7,1971.6,272.8,1968,276.9z M2150.2,373.8c0-14.1-5.3-25.3-16.1-33.8c-9.7-7.6-21.8-11.5-36.5-11.5
	c-32.5,0-53.3,25.4-53.3,56.7c0,30.1,22.1,55.3,53,55.3c21.5,0,32.9-12.5,45.2-28.2v45.1c-6.2,4.7-13.4,9.8-20.8,12.7
	c-7.7,3.2-16.9,4.8-27.6,4.8c-51.6,0-85.7-42.8-85.7-92.2c0-25.4,7.9-46.3,23.7-62.7c16.8-17.3,38.9-25.9,66-25.9
	c51.3,0,87.9,29.4,87.9,82.6v94.7h-2.5c-18.4,0-33.4-14.9-33.4-33.3L2150.2,373.8L2150.2,373.8z M1659.2,363.6
	c-4.5-14-10.2-20.9-23.3-28.2c-31.1-17.4-61.7-2.6-75.9,28.1L1659.2,363.6z M1631.8,474.3c-22.9,4.9-45.4,1.1-67.3-11.1
	c-21.4-12-35.7-29.7-42.9-53.2c-14.5-47.5,15.2-100.4,63.1-113.2c23.7-6.3,46.5-3.5,68.1,8.6c35.9,20,49,51.1,46.7,91l-144.5-0.3
	c2.1,16.3,12.2,29.1,26.4,37c14.4,8,27.6,10,39.9,6.2c13.6-4.3,24.7-15.4,33.7-25.8l29.5,21.5C1672.4,456.4,1656,469.1,1631.8,474.3
	z M1934.3,297.5h35.9v173.7h-2.5c-18.4,0-33.3-14.9-33.3-33.3V297.5z"/>
</svg>
