<?xml version="1.0" encoding="iso-8859-1"?>
<!-- Generator: Adobe Illustrator 19.0.0, SVG Export Plug-In . SVG Version: 6.00 Build 0)  -->
<svg version="1.1" id="Layer_1" xmlns="http://www.w3.org/2000/svg" xmlns:xlink="http://www.w3.org/1999/xlink" x="0px" y="0px"
	 viewBox="0 0 512 512" style="enable-background:new 0 0 512 512;" xml:space="preserve">
<g>
	<g>
		<path d="M496.718,138.209L477.036,47.66c-2.812-12.917-18.836-17.578-28.132-8.259L424.685,63.62
			C324.21-24.595,170.778-21.036,74.903,74.834C15.449,134.284-10.976,219.335,4.21,302.349c1.645,8.993,10.25,15.095,19.438,13.424
			c9.074-1.664,15.083-10.363,13.425-19.438c-13.212-72.216,9.76-146.187,61.45-197.883c41.991-41.991,97.917-65.115,157.48-65.115
			c53.928,0,104.762,19.122,145.086,53.88l-23.045,23.044c-9.312,9.301-4.666,25.318,8.259,28.132l90.543,19.688
			c5.614,1.216,11.387-0.533,15.36-4.513C496.228,149.551,497.925,143.765,496.718,138.209z"/>
	</g>
</g>
<g>
	<g>
		<path d="M507.788,209.505c-1.664-9.074-10.461-15.071-19.432-13.425c-9.08,1.664-15.088,10.363-13.43,19.438
			c13.212,72.21-9.76,146.187-61.451,197.883c-41.991,41.991-97.917,65.115-157.48,65.115c-53.928,0-104.763-19.124-145.086-53.88
			l23.045-23.044c4.323-4.317,5.937-10.651,4.219-16.518c-1.724-5.862-6.508-10.315-12.478-11.614l-90.549-19.688
			c-5.562-1.213-11.347,0.484-15.36,4.513c-4.018,4.018-5.72,9.803-4.513,15.36l19.682,90.549
			c1.299,5.97,5.752,10.754,11.614,12.472c5.973,1.755,12.282,0.029,16.518-4.214l24.223-24.221
			c48.151,42.275,108.338,63.684,168.684,63.684c65.587,0,131.17-24.967,181.099-74.896
			C496.545,377.566,522.979,292.513,507.788,209.505z"/>
	</g>
</g>
<g>
	<g>
		<path d="M393.627,206.556c-7.73-4.732-15.559-8.554-23.331-11.383c-22.991-8.368-45.625-8.02-65.291,0.931
			c-13.292,6.209-24.222,16.039-32.522,28.784v-52.474c0-9.227-7.482-16.703-16.703-16.703s-16.703,7.476-16.703,16.703v53.143
			c-8.359-13.103-19.485-23.148-33-29.46c-19.721-8.976-42.279-9.301-65.249-0.94c-7.782,2.832-15.63,6.657-23.365,11.39
			c-1.934,1.184-3.03,3.533-2.694,5.775c5.334,35.611,22.676,62.041,48.96,74.592c19.573,9.105,42.03,9.507,64.95,1.165
			c3.455-1.258,6.929-2.884,10.398-4.532v78.165c-0.001,9.227,7.481,16.703,16.702,16.703s16.703-7.476,16.703-16.703v-77.955
			c3.306,1.553,6.615,3.12,9.911,4.319c22.95,8.354,45.463,7.932,64.958-1.156c26.328-12.581,43.629-38.983,48.969-74.588
			C396.657,210.09,395.561,207.74,393.627,206.556z"/>
	</g>
</g>
<g>
</g>
<g>
</g>
<g>
</g>
<g>
</g>
<g>
</g>
<g>
</g>
<g>
</g>
<g>
</g>
<g>
</g>
<g>
</g>
<g>
</g>
<g>
</g>
<g>
</g>
<g>
</g>
<g>
</g>
</svg>
